<mxfile host="65bd71144e">
    <diagram name="Página-1" id="9b8VLnj8Mz3aVBrHHbm3">
        <mxGraphModel dx="958" dy="466" grid="1" gridSize="10" guides="1" tooltips="1" connect="1" arrows="1" fold="1" page="1" pageScale="1" pageWidth="1169" pageHeight="827" math="0" shadow="0">
            <root>
                <mxCell id="0"/>
                <mxCell id="1" parent="0"/>
                <mxCell id="Bveqn131Wfzq2yRQzuPB-2" value="Estado: 🟠Pendiente&amp;nbsp;&lt;br&gt;&lt;br&gt;&lt;div&gt;❌No tiene: Nota, ni apuntes&lt;br&gt;&lt;/div&gt;" style="rounded=0;whiteSpace=wrap;html=1;fontSize=30;" parent="1" vertex="1">
                    <mxGeometry x="250" y="130" width="420" height="130" as="geometry"/>
                </mxCell>
                <mxCell id="Bveqn131Wfzq2yRQzuPB-3" value="Estado: 🟡En curso&amp;nbsp;&lt;br&gt;&lt;br&gt;❌No tiene: Nota&lt;br&gt;&lt;div&gt;&lt;span style=&quot;background-color: transparent; color: light-dark(rgb(0, 0, 0), rgb(255, 255, 255));&quot;&gt;🔰&lt;/span&gt;&lt;span style=&quot;background-color: transparent; color: light-dark(rgb(0, 0, 0), rgb(255, 255, 255));&quot;&gt;&amp;nbsp;&lt;/span&gt;Puede tener o no: 📚 Apuntes&lt;/div&gt;" style="rounded=0;whiteSpace=wrap;html=1;fontSize=30;" parent="1" vertex="1">
                    <mxGeometry x="250" y="275" width="450" height="150" as="geometry"/>
                </mxCell>
                <mxCell id="Bveqn131Wfzq2yRQzuPB-4" value="Estado: 🟢Promocionada&lt;br&gt;&lt;br&gt;&lt;div&gt;❌No tiene: Nota&lt;br&gt;🔰 Puede tener o no: 📚 Apuntes&lt;/div&gt;" style="rounded=0;whiteSpace=wrap;html=1;fontSize=30;" parent="1" vertex="1">
                    <mxGeometry x="250" y="440" width="460" height="190" as="geometry"/>
                </mxCell>
                <mxCell id="5" style="edgeStyle=none;html=1;exitX=0;exitY=1;exitDx=0;exitDy=0;entryX=0.5;entryY=0;entryDx=0;entryDy=0;" edge="1" parent="1" source="2" target="3">
                    <mxGeometry relative="1" as="geometry"/>
                </mxCell>
                <mxCell id="6" style="edgeStyle=none;html=1;exitX=1;exitY=1;exitDx=0;exitDy=0;entryX=1;entryY=0;entryDx=0;entryDy=0;" edge="1" parent="1" source="2" target="4">
                    <mxGeometry relative="1" as="geometry"/>
                </mxCell>
                <mxCell id="2" value="&lt;span style=&quot;color: rgb(0, 0, 0); font-size: 30px;&quot;&gt;🟠Pendiente&lt;/span&gt;" style="ellipse;whiteSpace=wrap;html=1;" vertex="1" parent="1">
                    <mxGeometry x="770" y="145" width="230" height="55" as="geometry"/>
                </mxCell>
                <mxCell id="3" value="&lt;span style=&quot;color: rgb(63, 63, 63); font-size: 30px;&quot;&gt;Nota&lt;/span&gt;" style="ellipse;whiteSpace=wrap;html=1;" vertex="1" parent="1">
                    <mxGeometry x="740" y="270" width="100" height="60" as="geometry"/>
                </mxCell>
                <mxCell id="4" value="&lt;span style=&quot;color: rgb(63, 63, 63); font-size: 30px;&quot;&gt;apuntes&lt;/span&gt;" style="ellipse;whiteSpace=wrap;html=1;" vertex="1" parent="1">
                    <mxGeometry x="860" y="275" width="140" height="50" as="geometry"/>
                </mxCell>
                <mxCell id="7" value="no tiene, por condicion" style="text;html=1;align=center;verticalAlign=middle;resizable=0;points=[];autosize=1;strokeColor=#C73500;fillColor=#fa6800;fontSize=23;fontColor=#000000;" vertex="1" parent="1">
                    <mxGeometry x="760" y="220" width="250" height="40" as="geometry"/>
                </mxCell>
                <mxCell id="8" style="edgeStyle=none;html=1;exitX=0.501;exitY=1.018;exitDx=0;exitDy=0;entryX=0.5;entryY=0;entryDx=0;entryDy=0;exitPerimeter=0;" edge="1" parent="1" source="13" target="11">
                    <mxGeometry relative="1" as="geometry"/>
                </mxCell>
                <mxCell id="9" style="edgeStyle=none;html=1;exitX=1;exitY=1;exitDx=0;exitDy=0;entryX=0.5;entryY=0;entryDx=0;entryDy=0;" edge="1" parent="1" source="10" target="12">
                    <mxGeometry relative="1" as="geometry"/>
                </mxCell>
                <mxCell id="10" value="&lt;span style=&quot;color: rgb(0, 0, 0);&quot;&gt;&lt;font style=&quot;font-size: 27px;&quot;&gt;🟡En curso&amp;nbsp;&lt;br&gt;&lt;span style=&quot;color: rgb(0, 0, 0);&quot;&gt;🟢Promocionada&lt;/span&gt;&lt;/font&gt;&lt;/span&gt;" style="ellipse;whiteSpace=wrap;html=1;" vertex="1" parent="1">
                    <mxGeometry x="775" y="350" width="270" height="110" as="geometry"/>
                </mxCell>
                <mxCell id="11" value="&lt;span style=&quot;color: rgb(63, 63, 63); font-size: 30px;&quot;&gt;Nota&lt;/span&gt;" style="ellipse;whiteSpace=wrap;html=1;" vertex="1" parent="1">
                    <mxGeometry x="755" y="590" width="100" height="60" as="geometry"/>
                </mxCell>
                <mxCell id="12" value="&lt;span style=&quot;color: rgb(63, 63, 63); font-size: 30px;&quot;&gt;apuntes&lt;/span&gt;" style="ellipse;whiteSpace=wrap;html=1;" vertex="1" parent="1">
                    <mxGeometry x="895" y="590" width="140" height="50" as="geometry"/>
                </mxCell>
                <mxCell id="15" value="" style="edgeStyle=none;html=1;exitX=0;exitY=1;exitDx=0;exitDy=0;entryX=0.5;entryY=0;entryDx=0;entryDy=0;" edge="1" parent="1" source="10" target="13">
                    <mxGeometry relative="1" as="geometry">
                        <mxPoint x="819" y="453" as="sourcePoint"/>
                        <mxPoint x="805" y="590" as="targetPoint"/>
                    </mxGeometry>
                </mxCell>
                <mxCell id="13" value="no tiene, &lt;br&gt;por condicion" style="text;html=1;align=center;verticalAlign=middle;resizable=0;points=[];autosize=1;strokeColor=#C73500;fillColor=#fa6800;fontSize=23;fontColor=#000000;" vertex="1" parent="1">
                    <mxGeometry x="720" y="485" width="160" height="70" as="geometry"/>
                </mxCell>
                <mxCell id="16" value="&amp;nbsp;puede tener o no&lt;br&gt;(opcional)" style="text;html=1;align=center;verticalAlign=middle;resizable=0;points=[];autosize=1;strokeColor=#82b366;fillColor=#d5e8d4;fontSize=23;gradientColor=#97d077;" vertex="1" parent="1">
                    <mxGeometry x="890" y="490" width="200" height="70" as="geometry"/>
                </mxCell>
            </root>
        </mxGraphModel>
    </diagram>
</mxfile>